PathFileType	4	(X/Y/Z)	OpenSim_Sub04_CSStiffKnee_Magnet.trc
DataRate	CameraRate	NumFrames	NumMarkers	Units	OrigDataRate	OrigDataStartFrame	OrigNumFrames
100	100	30	8	m	100	927	7413
Frame#	Time	torso_imu_offset_imu	pelvis_imu_offset_imu	tibia_r_imu_offset_imu	femur_r_imu_offset_imu	tibia_l_imu_offset_imu	femur_l_imu_offset_imu	toes_r_imu_offset_imu	toes_l_imu_offset_imu
				X1	Y1	Z1	X2	Y2	Z2	X3	Y3	Z3	X4	Y4	Z4	X5	Y5	Z5	X6	Y6	Z6	X7	Y7	Z7	X8		Y8	Z8	

927	9.26000000	0.93291943	0.14844734	-0.14246147	-0.56788573	0.09479084	-0.72188922	-0.31043393	-0.75927914	-0.05797287	-0.75660101	-0.36337822	0.10692824	-0.61567495	0.48990811	0.22522342	-0.40592815	0.12694549	0.46984357	-0.75219672	-0.24383605	-0.10549268	-0.68462012	-0.31542445	-0.32187395
928	9.27000000	0.93131821	0.14897509	-0.14008608	-0.57123757	0.10727388	-0.71836380	-0.28367229	-0.77212559	-0.04951550	-0.76654833	-0.34452210	0.09971944	-0.60964793	0.49330599	0.22760360	-0.40444437	0.12696146	0.47583508	-0.75295005	-0.25853340	-0.07227093	-0.67924576	-0.31535922	-0.32325420
929	9.28000000	0.93226082	0.15334387	-0.13795433	-0.57141178	0.11299819	-0.70863867	-0.26168557	-0.77887029	-0.04108460	-0.77951605	-0.32081172	0.09469407	-0.60977288	0.49095336	0.22746785	-0.39861499	0.12754184	0.49480051	-0.75539020	-0.27028160	-0.03746102	-0.68392388	-0.31939594	-0.31728139
930	9.29000000	0.92860351	0.15188232	-0.14635880	-0.57403233	0.11931783	-0.70780295	-0.23936456	-0.78590383	-0.03420032	-0.78625528	-0.29879503	0.09190311	-0.60869333	0.49798570	0.23319635	-0.38706753	0.13411578	0.50200159	-0.75502248	-0.28036556	-0.00184347	-0.68324737	-0.31862378	-0.31991089
931	9.30000000	0.92975512	0.15308453	-0.14963544	-0.58101551	0.11893216	-0.71166759	-0.21447326	-0.78897513	-0.03001977	-0.79460962	-0.27344555	0.08823983	-0.60548453	0.50239018	0.23845374	-0.38199181	0.14422393	0.50379137	-0.74970846	-0.30098092	0.03406377	-0.67647613	-0.32163294	-0.31879357
932	9.31000000	0.93136686	0.15979013	-0.14860693	-0.57925454	0.11722045	-0.70878162	-0.19326388	-0.79194363	-0.01664074	-0.80426660	-0.24631772	0.07621931	-0.59891192	0.50683089	0.24031182	-0.38108280	0.15692571	0.49711290	-0.74223296	-0.31287799	0.06898301	-0.66969954	-0.32921324	-0.31451842
933	9.32000000	0.92456679	0.16248172	-0.14511529	-0.57664954	0.12131842	-0.70714276	-0.17187318	-0.79936470	-0.01385794	-0.81940737	-0.21973328	0.06344237	-0.59562745	0.51472205	0.24814462	-0.38706755	0.15829420	0.49722053	-0.73095416	-0.32740169	0.09855701	-0.67163688	-0.33214489	-0.31615026
934	9.33000000	0.92430635	0.16106676	-0.14781415	-0.57966730	0.11696440	-0.70539159	-0.15343849	-0.80270842	-0.00781678	-0.82026124	-0.20059253	0.05343277	-0.59086958	0.51478839	0.25369475	-0.38399489	0.16172638	0.49581732	-0.72709215	-0.33987456	0.11518607	-0.67239925	-0.33096191	-0.31251123
935	9.34000000	0.92229925	0.16623424	-0.15052746	-0.58382302	0.11578124	-0.70619464	-0.13780070	-0.80502807	-0.00340202	-0.82563406	-0.18192572	0.03801035	-0.58491409	0.51955299	0.25277374	-0.37857258	0.16240372	0.49745328	-0.72486102	-0.34169515	0.11876062	-0.67094959	-0.33188286	-0.31123087
936	9.35000000	0.92107663	0.17517928	-0.14667487	-0.58065919	0.11463047	-0.70590557	-0.13497374	-0.80415279	-0.01638883	-0.83083116	-0.16218014	0.03305140	-0.58241766	0.52201487	0.25678294	-0.37228662	0.15938382	0.50588618	-0.72294019	-0.34508294	0.12326069	-0.67080099	-0.33068327	-0.30805456
937	9.36000000	0.92288506	0.17540126	-0.14117669	-0.58158550	0.11145670	-0.71342829	-0.13683214	-0.80402184	-0.02341850	-0.83578616	-0.15126327	0.03686115	-0.57880776	0.52475275	0.26237350	-0.35919104	0.17023729	0.50723441	-0.72209175	-0.33984991	0.12815536	-0.67317900	-0.33420855	-0.30729308
938	9.37000000	0.92090889	0.18463550	-0.14343825	-0.58324338	0.11605142	-0.71247415	-0.14762101	-0.79931567	-0.03268611	-0.84047695	-0.13441906	0.03445604	-0.57551431	0.52596266	0.25799584	-0.35678384	0.17858817	0.51344601	-0.72135290	-0.32721022	0.12446180	-0.66996696	-0.33680987	-0.31034057
939	9.38000000	0.91876625	0.18843852	-0.14399936	-0.57846813	0.11430756	-0.71129827	-0.16672057	-0.79762958	-0.03746415	-0.84094387	-0.11553472	0.02527648	-0.57423885	0.53121582	0.25360459	-0.36003980	0.18290188	0.51382960	-0.73092985	-0.31554101	0.10835055	-0.67317517	-0.33108949	-0.31226617
940	9.39000000	0.91566430	0.18984762	-0.14478459	-0.57721876	0.12326197	-0.71486419	-0.18693011	-0.79101873	-0.03801860	-0.84564725	-0.09917723	0.00938611	-0.56837776	0.53862983	0.25847365	-0.35375426	0.19227522	0.51694812	-0.74181834	-0.30089663	0.09900944	-0.67385235	-0.33307012	-0.31423938
941	9.40000000	0.91880693	0.19769194	-0.14292237	-0.57698471	0.12366255	-0.71332111	-0.20802603	-0.78349416	-0.03096434	-0.84758558	-0.08464555	0.00536030	-0.56618550	0.53979231	0.26225051	-0.34831183	0.19602866	0.52034831	-0.74305010	-0.28432485	0.07481666	-0.66967208	-0.33352272	-0.30907858
942	9.41000000	0.92387909	0.20275825	-0.14210500	-0.57089485	0.12630444	-0.70858446	-0.23045764	-0.77119517	-0.02348989	-0.84898432	-0.06495236	-0.00399026	-0.56332502	0.53970021	0.25655751	-0.34760000	0.20288006	0.52036160	-0.75663575	-0.26682656	0.05255639	-0.67603780	-0.33375902	-0.31611346
943	9.42000000	0.92090958	0.20529368	-0.13521958	-0.57066814	0.13518340	-0.70935802	-0.25567604	-0.76387030	-0.01908951	-0.85211777	-0.05188657	-0.01309849	-0.56244131	0.54866110	0.25470882	-0.34213774	0.20542227	0.52585764	-0.76243785	-0.24907856	0.02472530	-0.67481139	-0.33380250	-0.31702124
944	9.43000000	0.91949948	0.20762188	-0.13759415	-0.57705317	0.13662585	-0.70685191	-0.28881346	-0.75236854	-0.01064584	-0.85163081	-0.04175621	-0.02163136	-0.55800502	0.55435729	0.26531446	-0.33755040	0.21296425	0.53110569	-0.76422034	-0.23478998	-0.00672627	-0.67702489	-0.33114236	-0.31144577
945	9.44000000	0.91622096	0.20799908	-0.14165586	-0.56743165	0.14144604	-0.70921944	-0.32512673	-0.73790909	-0.00497204	-0.85061247	-0.03132777	-0.02082610	-0.55552556	0.55813846	0.26047842	-0.33026002	0.21644027	0.52725847	-0.77043742	-0.21624925	-0.03897715	-0.68098081	-0.32883543	-0.30850082
946	9.45000000	0.91735356	0.21022775	-0.13630405	-0.56627999	0.14834247	-0.71493964	-0.36265768	-0.72036176	-0.01162208	-0.85237749	-0.02304092	-0.01878987	-0.55221500	0.55721616	0.26450931	-0.32377540	0.21619141	0.52977306	-0.77649525	-0.19846072	-0.07115653	-0.67967036	-0.32801333	-0.30575106
947	9.46000000	0.91875174	0.20722806	-0.13454210	-0.56990759	0.15328410	-0.71570623	-0.39951202	-0.70229782	-0.01858362	-0.85520052	-0.01749752	-0.02015510	-0.54464115	0.56346940	0.26523571	-0.31997068	0.22504764	0.53520402	-0.77889385	-0.18817711	-0.10403884	-0.68192100	-0.32800184	-0.30957126
948	9.47000000	0.91524669	0.20963384	-0.13592147	-0.56371804	0.15713068	-0.71358099	-0.43728375	-0.68016201	-0.02695576	-0.85533540	-0.01325248	-0.01546850	-0.53978890	0.57017512	0.26186009	-0.31640574	0.22954404	0.54377974	-0.77146212	-0.17304192	-0.14610203	-0.68211822	-0.32872929	-0.31096042
949	9.48000000	0.91586046	0.21231039	-0.13119676	-0.55960171	0.16189935	-0.71496650	-0.47259133	-0.65069773	-0.03266322	-0.85854438	-0.01163687	-0.02319146	-0.53538967	0.57234160	0.26416522	-0.30735524	0.23337804	0.54234764	-0.75978684	-0.16133766	-0.18332924	-0.68662849	-0.32445981	-0.31299041
950	9.49000000	0.91786564	0.20744732	-0.12675481	-0.56030306	0.16377279	-0.71423422	-0.50217131	-0.63055801	-0.04919183	-0.85949375	-0.00245354	-0.01880874	-0.53134656	0.57829315	0.26247639	-0.30078426	0.24230274	0.54050376	-0.75538216	-0.15100539	-0.21409272	-0.69064035	-0.31981899	-0.30991408
951	9.50000000	0.91485512	0.20556880	-0.12467948	-0.56285792	0.16270829	-0.71495546	-0.52569293	-0.60433573	-0.06924750	-0.85663292	-0.00324804	-0.01688209	-0.52507698	0.57712572	0.26662063	-0.30274636	0.23966527	0.54854389	-0.75120711	-0.13920705	-0.24841436	-0.68661606	-0.31970452	-0.31293072
952	9.51000000	0.92038474	0.20736326	-0.12488996	-0.55499510	0.16674521	-0.71431618	-0.54935011	-0.58169116	-0.07861586	-0.85502645	-0.00153270	-0.02409947	-0.52125768	0.58232919	0.26372925	-0.29191386	0.24728679	0.55076328	-0.73751636	-0.12853604	-0.28220634	-0.69451652	-0.31724581	-0.31476821
953	9.52000000	0.92296914	0.20888343	-0.12809262	-0.55010257	0.17307516	-0.71602307	-0.57697042	-0.54920849	-0.09359509	-0.85198808	0.00559767	-0.02058616	-0.51891386	0.59537835	0.25781582	-0.28404712	0.26127350	0.55034616	-0.72908336	-0.11106440	-0.31030537	-0.69808225	-0.31208532	-0.31450221
954	9.53000000	0.92117327	0.20557802	-0.12649811	-0.55141647	0.17202868	-0.72078129	-0.59758752	-0.52270051	-0.10555775	-0.85586016	0.01035422	-0.02084949	-0.51199079	0.60162908	0.25763347	-0.28280680	0.26486548	0.54962568	-0.72727666	-0.09718032	-0.33795604	-0.69769943	-0.31064056	-0.31580080
955	9.54000000	0.92158898	0.20400730	-0.11886339	-0.54985428	0.16583216	-0.71857054	-0.61457649	-0.49925664	-0.11014977	-0.85973149	0.01525378	-0.01996440	-0.51032408	0.60723861	0.25502033	-0.27443229	0.27534517	0.55385844	-0.71662608	-0.08780249	-0.35282886	-0.69808680	-0.30990518	-0.31667254
956	9.55000000	0.92097802	0.20279560	-0.11876802	-0.54595054	0.15977012	-0.72123262	-0.63100507	-0.47024248	-0.11937641	-0.85570066	0.01255615	-0.02288123	-0.50661221	0.61243982	0.25680174	-0.27077343	0.27592394	0.55037595	-0.70308453	-0.07587947	-0.36846735	-0.70498865	-0.30596016	-0.31912829
